<svg width="75" height="76" viewBox="0 0 75 76" fill="none" xmlns="http://www.w3.org/2000/svg">
<path d="M66.4452 0H7.97342C5.85874 0 3.83067 0.857119 2.33536 2.3828C0.840054 3.90848 0 5.97775 0 8.13539L0 67.7949C0 69.9525 0.840054 72.0218 2.33536 73.5475C3.83067 75.0731 5.85874 75.9303 7.97342 75.9303H66.4452C68.5599 75.9303 70.5879 75.0731 72.0832 73.5475C73.5785 72.0218 74.4186 69.9525 74.4186 67.7949V8.13539C74.4186 5.97775 73.5785 3.90848 72.0832 2.3828C70.5879 0.857119 68.5599 0 66.4452 0ZM63.7226 52.0953L61.2309 63.1119C61.1043 63.672 60.7955 64.1719 60.3547 64.5298C59.914 64.8878 59.3673 65.0828 58.804 65.0831C32.2259 65.0831 10.6312 43.0989 10.6312 15.9318C10.651 15.3624 10.8494 14.8145 11.1971 14.3688C11.5449 13.923 12.0237 13.6029 12.5631 13.4556L23.3605 10.9133C23.5446 10.8735 23.7321 10.8514 23.9203 10.8472C24.4021 10.872 24.8686 11.028 25.2715 11.2989C25.6743 11.5698 25.9987 11.9458 26.211 12.3878L31.1943 24.2519C31.3164 24.5718 31.3844 24.9105 31.3953 25.2536C31.3548 26.0062 31.0268 26.7126 30.4817 27.2213L24.1877 32.4754C28.0014 40.7225 34.5068 47.3601 42.5897 51.2512L47.7392 44.8294C48.2378 44.2732 48.9302 43.9386 49.6678 43.8972C50.004 43.9082 50.336 43.9776 50.6495 44.1023L62.2774 49.1869C62.7109 49.4032 63.0796 49.7341 63.3451 50.1452C63.6107 50.5562 63.7634 51.0324 63.7874 51.5241C63.784 51.7162 63.7624 51.9075 63.7226 52.0953Z" fill="black"/>
</svg>
