<?xml version="1.0" standalone="no"?>
<svg xmlns:xlink="http://www.w3.org/1999/xlink" id="wave" style="transform:rotate(180deg); transition: 0.3s" viewBox="0 0 1440 200" version="1.1" xmlns="http://www.w3.org/2000/svg"><defs><linearGradient id="sw-gradient-0" x1="0" x2="0" y1="1" y2="0"><stop stop-color="rgba(243, 106, 62, 1)" offset="0%"/><stop stop-color="rgba(255, 179, 11, 1)" offset="100%"/></linearGradient></defs><path style="transform:translate(0, 0px); opacity:1" fill="url(#sw-gradient-0)" d="M0,20L48,43.3C96,67,192,113,288,133.3C384,153,480,147,576,123.3C672,100,768,60,864,53.3C960,47,1056,73,1152,86.7C1248,100,1344,100,1440,86.7C1536,73,1632,47,1728,33.3C1824,20,1920,20,2016,43.3C2112,67,2208,113,2304,140C2400,167,2496,173,2592,146.7C2688,120,2784,60,2880,40C2976,20,3072,40,3168,53.3C3264,67,3360,73,3456,76.7C3552,80,3648,80,3744,90C3840,100,3936,120,4032,123.3C4128,127,4224,113,4320,100C4416,87,4512,73,4608,66.7C4704,60,4800,60,4896,70C4992,80,5088,100,5184,100C5280,100,5376,80,5472,83.3C5568,87,5664,113,5760,106.7C5856,100,5952,60,6048,56.7C6144,53,6240,87,6336,83.3C6432,80,6528,40,6624,23.3C6720,7,6816,13,6864,16.7L6912,20L6912,200L6864,200C6816,200,6720,200,6624,200C6528,200,6432,200,6336,200C6240,200,6144,200,6048,200C5952,200,5856,200,5760,200C5664,200,5568,200,5472,200C5376,200,5280,200,5184,200C5088,200,4992,200,4896,200C4800,200,4704,200,4608,200C4512,200,4416,200,4320,200C4224,200,4128,200,4032,200C3936,200,3840,200,3744,200C3648,200,3552,200,3456,200C3360,200,3264,200,3168,200C3072,200,2976,200,2880,200C2784,200,2688,200,2592,200C2496,200,2400,200,2304,200C2208,200,2112,200,2016,200C1920,200,1824,200,1728,200C1632,200,1536,200,1440,200C1344,200,1248,200,1152,200C1056,200,960,200,864,200C768,200,672,200,576,200C480,200,384,200,288,200C192,200,96,200,48,200L0,200Z"/><defs><linearGradient id="sw-gradient-1" x1="0" x2="0" y1="1" y2="0"><stop stop-color="rgba(243, 106, 62, 1)" offset="0%"/><stop stop-color="rgba(255, 179, 11, 1)" offset="100%"/></linearGradient></defs><path style="transform:translate(0, 50px); opacity:0.9" fill="url(#sw-gradient-1)" d="M0,140L48,123.3C96,107,192,73,288,50C384,27,480,13,576,26.7C672,40,768,80,864,96.7C960,113,1056,107,1152,103.3C1248,100,1344,100,1440,103.3C1536,107,1632,113,1728,103.3C1824,93,1920,67,2016,46.7C2112,27,2208,13,2304,20C2400,27,2496,53,2592,53.3C2688,53,2784,27,2880,30C2976,33,3072,67,3168,76.7C3264,87,3360,73,3456,73.3C3552,73,3648,87,3744,103.3C3840,120,3936,140,4032,146.7C4128,153,4224,147,4320,120C4416,93,4512,47,4608,46.7C4704,47,4800,93,4896,116.7C4992,140,5088,140,5184,130C5280,120,5376,100,5472,93.3C5568,87,5664,93,5760,100C5856,107,5952,113,6048,123.3C6144,133,6240,147,6336,153.3C6432,160,6528,160,6624,133.3C6720,107,6816,53,6864,26.7L6912,0L6912,200L6864,200C6816,200,6720,200,6624,200C6528,200,6432,200,6336,200C6240,200,6144,200,6048,200C5952,200,5856,200,5760,200C5664,200,5568,200,5472,200C5376,200,5280,200,5184,200C5088,200,4992,200,4896,200C4800,200,4704,200,4608,200C4512,200,4416,200,4320,200C4224,200,4128,200,4032,200C3936,200,3840,200,3744,200C3648,200,3552,200,3456,200C3360,200,3264,200,3168,200C3072,200,2976,200,2880,200C2784,200,2688,200,2592,200C2496,200,2400,200,2304,200C2208,200,2112,200,2016,200C1920,200,1824,200,1728,200C1632,200,1536,200,1440,200C1344,200,1248,200,1152,200C1056,200,960,200,864,200C768,200,672,200,576,200C480,200,384,200,288,200C192,200,96,200,48,200L0,200Z"/></svg>