<svg width="75" height="82" viewBox="0 0 75 82" fill="none" xmlns="http://www.w3.org/2000/svg">
<path d="M69.845 14.0809L40.0775 1.42583C39.1708 1.04204 38.1987 0.844482 37.2171 0.844482C36.2354 0.844482 35.2633 1.04204 34.3566 1.42583L4.58915 14.0809C1.81395 15.2515 0 18.0198 0 21.0886C0 52.4889 17.7519 74.1923 34.3411 81.2475C36.1705 82.0226 38.2326 82.0226 40.062 81.2475C53.3488 75.6002 74.4186 56.0956 74.4186 21.0886C74.4186 18.0198 72.6047 15.2515 69.845 14.0809ZM37.2248 71.4399L37.2093 11.1702L64.4806 22.7654C63.969 46.7151 51.7519 64.0683 37.2248 71.4399Z" fill="black"/>
</svg>
