<?xml version="1.0" standalone="no"?>
<svg xmlns:xlink="http://www.w3.org/1999/xlink" id="wave" style="transform:rotate(0deg); transition: 0.3s" viewBox="0 0 1440 490" version="1.1" xmlns="http://www.w3.org/2000/svg"><defs><linearGradient id="sw-gradient-0" x1="0" x2="0" y1="1" y2="0"><stop stop-color="rgba(50.507, 5.861, 38.457, 1)" offset="0%"/><stop stop-color="rgba(0, 0, 0, 1)" offset="100%"/></linearGradient></defs><path style="transform:translate(0, 0px); opacity:1" fill="url(#sw-gradient-0)" d="M0,147L80,138.8C160,131,320,114,480,122.5C640,131,800,163,960,196C1120,229,1280,261,1440,277.7C1600,294,1760,294,1920,261.3C2080,229,2240,163,2400,138.8C2560,114,2720,131,2880,114.3C3040,98,3200,49,3360,24.5C3520,0,3680,0,3840,16.3C4000,33,4160,65,4320,130.7C4480,196,4640,294,4800,318.5C4960,343,5120,294,5280,253.2C5440,212,5600,180,5760,163.3C5920,147,6080,147,6240,138.8C6400,131,6560,114,6720,147C6880,180,7040,261,7200,302.2C7360,343,7520,343,7680,318.5C7840,294,8000,245,8160,261.3C8320,278,8480,359,8640,375.7C8800,392,8960,343,9120,326.7C9280,310,9440,327,9600,343C9760,359,9920,376,10080,351.2C10240,327,10400,261,10560,220.5C10720,180,10880,163,11040,138.8C11200,114,11360,82,11440,65.3L11520,49L11520,490L11440,490C11360,490,11200,490,11040,490C10880,490,10720,490,10560,490C10400,490,10240,490,10080,490C9920,490,9760,490,9600,490C9440,490,9280,490,9120,490C8960,490,8800,490,8640,490C8480,490,8320,490,8160,490C8000,490,7840,490,7680,490C7520,490,7360,490,7200,490C7040,490,6880,490,6720,490C6560,490,6400,490,6240,490C6080,490,5920,490,5760,490C5600,490,5440,490,5280,490C5120,490,4960,490,4800,490C4640,490,4480,490,4320,490C4160,490,4000,490,3840,490C3680,490,3520,490,3360,490C3200,490,3040,490,2880,490C2720,490,2560,490,2400,490C2240,490,2080,490,1920,490C1760,490,1600,490,1440,490C1280,490,1120,490,960,490C800,490,640,490,480,490C320,490,160,490,80,490L0,490Z"/></svg>