<svg width="12" height="12" viewBox="0 0 12 12" fill="none" xmlns="http://www.w3.org/2000/svg">
<path d="M6 0C2.68628 0 0 2.68628 0 6C0 9.31372 2.68628 12 6 12C9.31372 12 12 9.31372 12 6C12 2.68628 9.31372 0 6 0ZM6 1.16129C8.67416 1.16129 10.8387 3.32543 10.8387 6C10.8387 8.67416 8.67457 10.8387 6 10.8387C3.32584 10.8387 1.16129 8.67457 1.16129 6C1.16129 3.32584 3.32543 1.16129 6 1.16129ZM9.39203 4.31291L8.84681 3.76328C8.7339 3.64945 8.55007 3.6487 8.43624 3.76164L5.01644 7.15396L3.56985 5.69564C3.45694 5.58181 3.27312 5.58106 3.15929 5.69398L2.60964 6.2392C2.49581 6.35211 2.49506 6.53594 2.60799 6.64979L4.80431 8.86389C4.91722 8.97772 5.10104 8.97847 5.21487 8.86553L9.39041 4.7235C9.50422 4.61056 9.50494 4.42674 9.39203 4.31291Z" fill="#1FF91B"/>
</svg>
