<svg width="75" height="60" viewBox="0 0 75 60" fill="none" xmlns="http://www.w3.org/2000/svg">
<path d="M37.7907 0C17.2403 0 0.58139 17.0565 0.58139 38.0974C0.58139 45.0819 2.42248 51.6246 5.6279 57.2519C6.35271 58.5245 7.73385 59.2626 9.17312 59.2626H66.4083C67.8475 59.2626 69.2287 58.5245 69.9535 57.2519C73.1589 51.6246 75 45.0819 75 38.0974C75 17.0565 58.3411 0 37.7907 0ZM37.7907 8.46609C39.6912 8.46609 41.2248 9.80612 41.708 11.5946C41.5646 11.8935 41.3669 12.1541 41.2623 12.4769L40.0711 16.1372C39.4083 16.5988 38.6537 16.9322 37.792 16.9322C35.509 16.9322 33.6576 15.0366 33.6576 12.6991C33.6576 10.3617 35.5077 8.46609 37.7907 8.46609ZM12.9845 46.5635C10.7015 46.5635 8.85012 44.6679 8.85012 42.3305C8.85012 39.993 10.7015 38.0974 12.9845 38.0974C15.2674 38.0974 17.1189 39.993 17.1189 42.3305C17.1189 44.6679 15.2674 46.5635 12.9845 46.5635ZM19.186 25.3983C16.9031 25.3983 15.0517 23.5027 15.0517 21.1652C15.0517 18.8278 16.9031 16.9322 19.186 16.9322C21.469 16.9322 23.3204 18.8278 23.3204 21.1652C23.3204 23.5027 21.469 25.3983 19.186 25.3983ZM51.0685 15.8197L43.1447 40.1597C44.9134 41.7127 46.0594 43.9893 46.0594 46.5635C46.0594 48.1139 45.6227 49.5465 44.9121 50.7966H30.6692C29.9587 49.5465 29.522 48.1139 29.522 46.5635C29.522 42.0738 32.9457 38.4374 37.261 38.1516L45.186 13.8103C45.7248 12.1488 47.4767 11.2374 49.1085 11.8036C50.7326 12.3578 51.6085 14.1569 51.0685 15.8197ZM52.9625 23.3863L54.9677 17.2285C55.416 17.0579 55.8889 16.9335 56.3953 16.9335C58.6783 16.9335 60.5297 18.8291 60.5297 21.1666C60.5297 23.504 58.6783 25.3996 56.3953 25.3996C54.9251 25.3983 53.6964 24.5689 52.9625 23.3863ZM62.5969 46.5635C60.3139 46.5635 58.4625 44.6679 58.4625 42.3305C58.4625 39.993 60.3139 38.0974 62.5969 38.0974C64.8798 38.0974 66.7313 39.993 66.7313 42.3305C66.7313 44.6679 64.8798 46.5635 62.5969 46.5635Z" fill="black"/>
</svg>
